# xmcd CD database file
#
# Track frame offsets:
#	150
#	17855
#	34786
#	56636
#	75733
#	101744
#	125047
#	138080
#	149801
#	172670
#	185429
#	198010
#	235317
#
# Disc length: 3246 seconds
#
# Revision: 0
# Processed by: cddbd v1.5.1PL2 Copyright (c) Steve Scherf et al.
# Submitted via: CDex 1.51
#
DISCID=b20cac0d
DTITLE=Laurence Saltiel quartet - Moondance
DYEAR=2005
DGENRE=Jazz
TTITLE0=citron vertigo
TTITLE1=moondance
TTITLE2=l'homme lustucru
TTITLE3=my romance
TTITLE4=parisamba
TTITLE5=pêché fruité
TTITLE6=périscope
TTITLE7=the two lonely people
TTITLE8=waltz for debby
TTITLE9=strange monk
TTITLE10=jazz au désert
TTITLE11=notre île
TTITLE12=sortie de scène
EXTD=YEAR: 2005
EXTT0=
EXTT1=
EXTT2=
EXTT3=
EXTT4=
EXTT5=
EXTT6=
EXTT7=
EXTT8=
EXTT9=
EXTT10=
EXTT11=
EXTT12=
PLAYORDER=
